<svg width="35" height="37" viewBox="0 0 35 37" fill="none" xmlns="http://www.w3.org/2000/svg">
<path d="M25.6926 11.5461H28.2133C28.5476 11.5461 28.8682 11.7005 29.1046 11.9755C29.3409 12.2505 29.4737 12.6234 29.4737 13.0122V30.6062C29.4737 30.9951 29.3409 31.368 29.1046 31.643C28.8682 31.9179 28.5476 32.0724 28.2133 32.0724H18.1302C17.796 32.0724 17.4754 31.9179 17.239 31.643C17.0026 31.368 16.8699 30.9951 16.8699 30.6062V29.1401H6.78675C6.45248 29.1401 6.13189 28.9856 5.89553 28.7107C5.65916 28.4357 5.52637 28.0628 5.52637 27.6739V4.21522C5.52637 3.82637 5.65916 3.45344 5.89553 3.17848C6.13189 2.90352 6.45248 2.74905 6.78675 2.74905H24.4322C24.7664 2.74905 25.087 2.90352 25.3234 3.17848C25.5598 3.45344 25.6926 3.82637 25.6926 4.21522V11.5461ZM23.1718 11.5461V5.68139H8.04714V15.9446V26.2077H16.8699V13.0122C16.8699 12.6234 17.0026 12.2505 17.239 11.9755C17.4754 11.7005 17.796 11.5461 18.1302 11.5461H23.1718ZM19.3906 14.4784V29.1401H26.9529V14.4784H19.3906Z" fill="white"/>
</svg>
