<svg width="29" height="28" viewBox="0 0 29 28" fill="none" xmlns="http://www.w3.org/2000/svg">
<path d="M26.295 16.7003L26.295 16.7003L26.2996 16.7039C27.5689 17.6961 28.3334 19.0396 28.4758 20.5H0.525275C0.672936 19.0431 1.46065 17.6966 2.70501 16.7003C5.76976 14.2464 7.75 10.8225 7.75 7C7.75 3.44254 10.772 0.5 14.5 0.5C18.2626 0.5 21.25 3.44094 21.25 7C21.25 10.8225 23.2302 14.2464 26.295 16.7003ZM14.5 27.5C12.9463 27.5 11.6683 26.4024 11.419 25H17.581C17.3317 26.4024 16.0537 27.5 14.5 27.5Z" fill="#B3B3B3" fill-opacity="0.58" stroke="#C4C4C4"/>
</svg>
