<svg width="14" height="14" viewBox="0 0 14 14" fill="none" xmlns="http://www.w3.org/2000/svg">
<path d="M6.92549 6.79615e-06C7.02255 3.14935e-05 7.11888 0.0192026 7.20897 0.0564223C7.29905 0.0936419 7.38113 0.148179 7.45049 0.21691C7.51985 0.28564 7.57513 0.367213 7.61317 0.456957C7.65121 0.546701 7.67126 0.642853 7.67217 0.739904L7.72993 6.26298L13.2533 6.27032C13.3503 6.27047 13.4466 6.28972 13.5366 6.32699C13.6267 6.36425 13.7087 6.41879 13.778 6.4875C13.8474 6.5562 13.9027 6.63773 13.9407 6.72742C13.9788 6.81711 13.999 6.9132 14 7.01022C14.001 7.10724 13.9829 7.20327 13.9468 7.29285C13.9106 7.38243 13.857 7.46379 13.7892 7.53228C13.7213 7.60078 13.6404 7.65508 13.5512 7.69207C13.4619 7.72906 13.3661 7.74802 13.269 7.74787L7.74564 7.73844L7.80549 13.2615C7.80652 13.3585 7.78843 13.4546 7.75226 13.5442C7.71608 13.6337 7.66253 13.7151 7.59465 13.7836C7.52678 13.8521 7.44591 13.9064 7.35667 13.9434C7.26743 13.9804 7.17156 13.9993 7.07454 13.9992C6.97751 13.999 6.88124 13.9798 6.7912 13.9425C6.70117 13.9052 6.61915 13.8507 6.54981 13.782C6.48047 13.7133 6.42519 13.6318 6.3871 13.5421C6.34902 13.4524 6.32889 13.3563 6.32785 13.2593L6.2701 7.7362L0.746724 7.72886C0.6497 7.72871 0.553425 7.70946 0.463392 7.67219C0.37336 7.63493 0.291334 7.58039 0.221998 7.51168C0.152662 7.44298 0.0973738 7.36145 0.0592904 7.27176C0.0212077 7.18207 0.00107403 7.08598 4.17339e-05 6.98896C-0.000991249 6.89194 0.0170956 6.79591 0.0532703 6.70633C0.0894449 6.61675 0.142999 6.53539 0.210874 6.4669C0.278749 6.3984 0.359617 6.3441 0.448859 6.30711C0.538101 6.27012 0.63397 6.25116 0.730993 6.25131L6.25439 6.26074L6.19454 0.73766C6.19338 0.640608 6.21139 0.544515 6.24752 0.454883C6.28365 0.365252 6.3372 0.283844 6.4051 0.215322C6.473 0.1468 6.55391 0.0925105 6.64321 0.0555632C6.73251 0.0186159 6.82843 -0.000263257 6.92549 6.79615e-06Z" fill="white"/>
</svg>
