<svg width="34" height="37" viewBox="0 0 34 37" fill="none" xmlns="http://www.w3.org/2000/svg">
<path d="M16.9189 37C17.9237 37 18.7645 36.1431 18.7645 35.0885V20.4775H32.0126C32.997 20.4775 33.8582 19.5766 33.8582 18.5C33.8582 17.4234 32.997 16.5446 32.0126 16.5446H18.7645V1.91155C18.7645 0.856922 17.9237 0 16.9189 0C15.9139 0 15.0937 0.856922 15.0937 1.91155V16.5446H1.84563C0.861261 16.5446 0 17.4234 0 18.5C0 19.5766 0.861261 20.4775 1.84563 20.4775H15.0937V35.0885C15.0937 36.1431 15.9139 37 16.9189 37Z" fill="white"/>
</svg>
