<svg width="14" height="2" viewBox="0 0 14 2" fill="none" xmlns="http://www.w3.org/2000/svg">
<path d="M13.9667 0.697222C13.9961 0.789278 14.0061 0.880545 13.9963 0.965795C13.9864 1.05105 13.9568 1.12861 13.9092 1.19403C13.8616 1.25946 13.7969 1.31146 13.7189 1.34707C13.6408 1.38268 13.5508 1.40119 13.4542 1.40154L0.991167 1.46191C0.796149 1.46285 0.585642 1.38993 0.405955 1.25918C0.226268 1.12843 0.0921204 0.950567 0.0330239 0.764715C-0.0260727 0.578864 -0.00527822 0.400249 0.0908334 0.268164C0.186945 0.136079 0.3505 0.0613439 0.545519 0.0603995L13.0086 2.90294e-05C13.1051 -0.000555039 13.2065 0.0170276 13.307 0.0517704C13.4074 0.0865128 13.505 0.137733 13.594 0.202496C13.683 0.26726 13.7617 0.344293 13.8257 0.429186C13.8896 0.514079 13.9375 0.605164 13.9667 0.697222Z" fill="white"/>
</svg>
