<svg width="128" height="23" viewBox="0 0 128 23" fill="none" xmlns="http://www.w3.org/2000/svg">
<path fill-rule="evenodd" clip-rule="evenodd" d="M11.5 0C5.14873 0 0 5.14873 0 11.5C0 17.8513 5.14873 23 11.5 23H116.5C122.851 23 128 17.8513 128 11.5C128 5.14873 122.851 0 116.5 0H11.5ZM29.6149 15L32.4309 7.322H30.7919L28.6909 13.427L26.5789 7.322H24.9289L27.7449 15H29.6149ZM38.9752 12.415C39.0045 12.239 39.0192 12.041 39.0192 11.821C39.0192 11.227 38.8909 10.7027 38.6342 10.248C38.3849 9.786 38.0292 9.43033 37.5672 9.181C37.1125 8.93167 36.5955 8.807 36.0162 8.807C35.4149 8.807 34.8832 8.93533 34.4212 9.192C33.9592 9.44867 33.5999 9.81533 33.3432 10.292C33.0865 10.7687 32.9582 11.3223 32.9582 11.953C32.9582 12.5763 33.0865 13.1263 33.3432 13.603C33.6072 14.0797 33.9702 14.45 34.4322 14.714C34.9015 14.9707 35.4296 15.099 36.0162 15.099C36.7422 15.099 37.3545 14.912 37.8532 14.538C38.3519 14.1567 38.6892 13.6727 38.8652 13.086H37.2042C36.9622 13.5773 36.5552 13.823 35.9832 13.823C35.5872 13.823 35.2535 13.6983 34.9822 13.449C34.7109 13.1997 34.5569 12.855 34.5202 12.415H38.9752ZM36.9952 10.435C37.2739 10.6697 37.4169 10.985 37.4242 11.381H34.5312C34.5899 10.9703 34.7475 10.6513 35.0042 10.424C35.2682 10.1893 35.5909 10.072 35.9722 10.072C36.3755 10.072 36.7165 10.193 36.9952 10.435ZM42.4533 9.093C42.1379 9.27633 41.8813 9.52933 41.6833 9.852V8.906H40.1433V15H41.6833V11.964C41.6833 11.3993 41.8043 11.0033 42.0463 10.776C42.2956 10.5487 42.6623 10.435 43.1463 10.435H43.5533V8.818C43.1426 8.818 42.7759 8.90967 42.4533 9.093ZM52.5136 10.853C52.7116 10.4937 52.8106 10.1087 52.8106 9.698C52.8106 9.24333 52.7043 8.83633 52.4916 8.477C52.2863 8.11767 51.9746 7.83533 51.5566 7.63C51.1386 7.42467 50.6326 7.322 50.0386 7.322H47.2116V15H48.7516V12.052H50.0386C50.6693 12.052 51.19 11.942 51.6006 11.722C52.0186 11.502 52.323 11.2123 52.5136 10.853ZM50.9186 10.523C50.7133 10.7137 50.398 10.809 49.9726 10.809H48.7516V8.576H49.9726C50.8086 8.576 51.2266 8.95 51.2266 9.698C51.2266 10.05 51.124 10.325 50.9186 10.523ZM56.214 9.093C55.8987 9.27633 55.642 9.52933 55.444 9.852V8.906H53.904V15H55.444V11.964C55.444 11.3993 55.565 11.0033 55.807 10.776C56.0564 10.5487 56.423 10.435 56.907 10.435H57.314V8.818C56.9034 8.818 56.5367 8.90967 56.214 9.093ZM59.4733 14.714C59.9426 14.9707 60.4706 15.099 61.0573 15.099C61.6513 15.099 62.1866 14.9707 62.6633 14.714C63.1473 14.45 63.5286 14.0797 63.8073 13.603C64.0933 13.1263 64.2363 12.5763 64.2363 11.953C64.2363 11.3297 64.097 10.7797 63.8183 10.303C63.547 9.82633 63.173 9.45967 62.6963 9.203C62.2196 8.939 61.688 8.807 61.1013 8.807C60.5146 8.807 59.983 8.939 59.5063 9.203C59.0296 9.45967 58.652 9.82633 58.3733 10.303C58.102 10.7797 57.9663 11.3297 57.9663 11.953C57.9663 12.5763 58.0983 13.1263 58.3623 13.603C58.6336 14.0797 59.004 14.45 59.4733 14.714ZM61.8383 13.559C61.5963 13.691 61.336 13.757 61.0573 13.757C60.6173 13.757 60.2506 13.603 59.9573 13.295C59.6713 12.9797 59.5283 12.5323 59.5283 11.953C59.5283 11.3737 59.675 10.93 59.9683 10.622C60.269 10.3067 60.6393 10.149 61.0793 10.149C61.5193 10.149 61.8896 10.3067 62.1903 10.622C62.4983 10.93 62.6523 11.3737 62.6523 11.953C62.6523 12.3417 62.579 12.6717 62.4323 12.943C62.2856 13.2143 62.0876 13.4197 61.8383 13.559ZM65.3329 10.292C65.0909 10.7687 64.9699 11.315 64.9699 11.931C64.9699 12.5543 65.0909 13.108 65.3329 13.592C65.5823 14.0687 65.9196 14.439 66.3449 14.703C66.7703 14.967 67.2396 15.099 67.7529 15.099C68.2076 15.099 68.6073 15.0073 68.9519 14.824C69.2966 14.6407 69.5643 14.3987 69.7549 14.098V15H71.3169V6.86H69.7549V9.753C69.5423 9.467 69.2563 9.23967 68.8969 9.071C68.5376 8.895 68.1599 8.807 67.7639 8.807C67.2433 8.807 66.7703 8.93533 66.3449 9.192C65.9196 9.44867 65.5823 9.81533 65.3329 10.292ZM69.5459 10.996C69.6926 11.26 69.7659 11.579 69.7659 11.953C69.7659 12.327 69.6926 12.6497 69.5459 12.921C69.3993 13.185 69.2013 13.3903 68.9519 13.537C68.7026 13.6763 68.4349 13.746 68.1489 13.746C67.8703 13.746 67.6063 13.6727 67.3569 13.526C67.1149 13.3793 66.9169 13.1703 66.7629 12.899C66.6163 12.6203 66.5429 12.2977 66.5429 11.931C66.5429 11.5643 66.6163 11.249 66.7629 10.985C66.9169 10.7137 67.1149 10.5083 67.3569 10.369C67.5989 10.2297 67.8629 10.16 68.1489 10.16C68.4349 10.16 68.7026 10.2333 68.9519 10.38C69.2013 10.5193 69.3993 10.7247 69.5459 10.996ZM77.023 15H78.574V8.906H77.023V12.261C77.023 12.745 76.902 13.119 76.66 13.383C76.418 13.6397 76.0843 13.768 75.659 13.768C75.241 13.768 74.911 13.6397 74.669 13.383C74.427 13.119 74.306 12.745 74.306 12.261V8.906H72.766V12.481C72.766 13.0237 72.8687 13.493 73.074 13.889C73.2867 14.2777 73.5763 14.5747 73.943 14.78C74.3097 14.978 74.7313 15.077 75.208 15.077C75.582 15.077 75.9267 15.0037 76.242 14.857C76.5647 14.703 76.825 14.494 77.023 14.23V15ZM80.0825 10.303C79.8258 10.7723 79.6975 11.3223 79.6975 11.953C79.6975 12.5837 79.8258 13.1373 80.0825 13.614C80.3391 14.0833 80.6948 14.45 81.1495 14.714C81.6041 14.9707 82.1248 15.099 82.7115 15.099C83.4595 15.099 84.0828 14.9047 84.5815 14.516C85.0801 14.1273 85.4138 13.603 85.5825 12.943H83.9215C83.7308 13.5003 83.3238 13.779 82.7005 13.779C82.2605 13.779 81.9121 13.6213 81.6555 13.306C81.3988 12.9833 81.2705 12.5323 81.2705 11.953C81.2705 11.3663 81.3988 10.9153 81.6555 10.6C81.9121 10.2773 82.2605 10.116 82.7005 10.116C83.0085 10.116 83.2651 10.193 83.4705 10.347C83.6831 10.4937 83.8335 10.699 83.9215 10.963H85.5825C85.4138 10.281 85.0801 9.753 84.5815 9.379C84.0901 8.99767 83.4668 8.807 82.7115 8.807C82.1248 8.807 81.6041 8.939 81.1495 9.203C80.6948 9.45967 80.3391 9.82633 80.0825 10.303ZM88.5037 13.119V10.171H89.8677V8.906H88.5037V7.399H86.9527V8.906H86.2267V10.171H86.9527V13.108C86.9527 14.3693 87.6017 15 88.8997 15H89.8677V13.702H89.1527C88.918 13.702 88.7493 13.658 88.6467 13.57C88.5513 13.4747 88.5037 13.3243 88.5037 13.119ZM92.0973 14.714C92.5666 14.9707 93.0946 15.099 93.6813 15.099C94.2753 15.099 94.8106 14.9707 95.2873 14.714C95.7713 14.45 96.1526 14.0797 96.4313 13.603C96.7173 13.1263 96.8603 12.5763 96.8603 11.953C96.8603 11.3297 96.721 10.7797 96.4423 10.303C96.171 9.82633 95.797 9.45967 95.3203 9.203C94.8436 8.939 94.312 8.807 93.7253 8.807C93.1386 8.807 92.607 8.939 92.1303 9.203C91.6536 9.45967 91.276 9.82633 90.9973 10.303C90.726 10.7797 90.5903 11.3297 90.5903 11.953C90.5903 12.5763 90.7223 13.1263 90.9863 13.603C91.2576 14.0797 91.628 14.45 92.0973 14.714ZM94.4623 13.559C94.2203 13.691 93.96 13.757 93.6813 13.757C93.2413 13.757 92.8746 13.603 92.5813 13.295C92.2953 12.9797 92.1523 12.5323 92.1523 11.953C92.1523 11.3737 92.299 10.93 92.5923 10.622C92.893 10.3067 93.2633 10.149 93.7033 10.149C94.1433 10.149 94.5136 10.3067 94.8143 10.622C95.1223 10.93 95.2763 11.3737 95.2763 11.953C95.2763 12.3417 95.203 12.6717 95.0563 12.943C94.9096 13.2143 94.7116 13.4197 94.4623 13.559ZM98.98 14.835C99.376 15.011 99.8233 15.099 100.322 15.099C100.806 15.099 101.228 15.022 101.587 14.868C101.954 14.7067 102.232 14.4867 102.423 14.208C102.621 13.9293 102.72 13.614 102.72 13.262C102.713 12.8587 102.603 12.536 102.39 12.294C102.185 12.0447 101.939 11.8613 101.653 11.744C101.367 11.6267 101.004 11.513 100.564 11.403C100.131 11.293 99.8123 11.1867 99.607 11.084C99.4016 10.974 99.299 10.8163 99.299 10.611C99.299 10.4277 99.3723 10.2847 99.519 10.182C99.673 10.0793 99.8893 10.028 100.168 10.028C100.469 10.028 100.707 10.1013 100.883 10.248C101.066 10.3873 101.169 10.578 101.191 10.82H102.665C102.621 10.204 102.383 9.71633 101.95 9.357C101.517 8.99033 100.938 8.807 100.212 8.807C99.7206 8.807 99.2916 8.88767 98.925 9.049C98.5656 9.21033 98.287 9.43033 98.089 9.709C97.8983 9.98767 97.803 10.2957 97.803 10.633C97.803 11.0437 97.9056 11.37 98.111 11.612C98.3236 11.854 98.573 12.0337 98.859 12.151C99.1523 12.2683 99.5263 12.382 99.981 12.492C100.421 12.6093 100.74 12.7193 100.938 12.822C101.143 12.9173 101.246 13.064 101.246 13.262C101.246 13.4453 101.162 13.5957 100.993 13.713C100.832 13.8303 100.604 13.889 100.311 13.889C100.01 13.889 99.7573 13.812 99.552 13.658C99.354 13.504 99.2403 13.3097 99.211 13.075H97.66C97.682 13.449 97.8066 13.79 98.034 14.098C98.2686 14.406 98.584 14.6517 98.98 14.835Z" fill="white"/>
</svg>
