<svg width="36" height="32" viewBox="0 0 36 32" fill="none" xmlns="http://www.w3.org/2000/svg">
<g filter="url(#filter0_d_0_28)">
<path d="M15.2721 23.672H31.4525C31.9932 23.672 32.4645 23.225 32.4645 22.6244C32.4645 22.0238 31.9932 21.5768 31.4525 21.5768H15.5078C14.7175 21.5768 14.2323 21.0181 14.1075 20.1661L13.8856 18.6995H31.4801C33.5044 18.6995 34.5442 17.4424 34.8355 15.4451L35.9447 8.05625C35.9725 7.87473 36 7.65119 36 7.5255C36 6.85506 35.5009 6.39416 34.7384 6.39416H12.0971L11.8337 4.62026C11.695 3.54476 11.3068 3 9.89255 3H5.02601C4.47142 3 4 3.48892 4 4.04762C4 4.62026 4.47142 5.10912 5.02601 5.10912H9.7123L11.9307 20.4455C12.2218 22.4288 13.2617 23.672 15.2721 23.672ZM33.6429 8.50321L32.6588 15.1937C32.5478 16.0596 32.0903 16.5904 31.2722 16.5904L13.5806 16.6044L12.4021 8.50321H33.6429ZM16.3674 30.4602C17.6153 30.4602 18.6136 29.4685 18.6136 28.1974C18.6136 26.9403 17.6153 25.9347 16.3674 25.9347C15.1057 25.9347 14.1075 26.9403 14.1075 28.1974C14.1075 29.4685 15.1057 30.4602 16.3674 30.4602ZM29.3311 30.4602C30.5927 30.4602 31.5911 29.4685 31.5911 28.1974C31.5911 26.9403 30.5927 25.9347 29.3311 25.9347C28.0832 25.9347 27.0711 26.9403 27.0711 28.1974C27.0711 29.4685 28.0832 30.4602 29.3311 30.4602Z" fill="#007AFF"/>
</g>
<defs>
<filter id="filter0_d_0_28" x="0" y="0" width="36" height="31.4602" filterUnits="userSpaceOnUse" color-interpolation-filters="sRGB">
<feFlood flood-opacity="0" result="BackgroundImageFix"/>
<feColorMatrix in="SourceAlpha" type="matrix" values="0 0 0 0 0 0 0 0 0 0 0 0 0 0 0 0 0 0 127 0" result="hardAlpha"/>
<feOffset dx="-2" dy="-1"/>
<feGaussianBlur stdDeviation="1"/>
<feComposite in2="hardAlpha" operator="out"/>
<feColorMatrix type="matrix" values="0 0 0 0 0 0 0 0 0 0 0 0 0 0 0 0 0 0 0.25 0"/>
<feBlend mode="normal" in2="BackgroundImageFix" result="effect1_dropShadow_0_28"/>
<feBlend mode="normal" in="SourceGraphic" in2="effect1_dropShadow_0_28" result="shape"/>
</filter>
</defs>
</svg>
