<svg width="40" height="44" viewBox="0 0 40 44" fill="none" xmlns="http://www.w3.org/2000/svg">
<path d="M19.0038 13.9077C19.5379 13.7675 19.8573 13.221 19.7173 12.6868L18.9136 9.62138C19.7682 9.95364 20.6117 10.4031 21.3934 10.8915C22.6507 11.6771 23.6881 12.5252 24.2728 13.0357C24.4424 13.1838 24.6571 13.2703 24.8821 13.2812C29.6688 13.5131 32.899 15.3201 34.9281 17.2445C35.9485 18.2123 36.6676 19.2123 37.127 20.0621C37.6062 20.9487 37.75 21.5717 37.75 21.7944C37.75 22.0426 37.6029 22.6784 37.1259 23.5639C36.6669 24.4157 35.948 25.4121 34.9268 26.3741C32.8959 28.2873 29.6579 30.0764 24.8516 30.3093C24.6262 30.3203 24.4111 30.4071 24.2413 30.5557C23.646 31.0768 22.6098 31.9255 21.3598 32.7083C20.5873 33.192 19.756 33.6361 18.9141 33.9652L19.7173 30.902C19.8573 30.368 19.5382 29.8217 19.0043 29.6813C17.202 29.2073 15.4793 28.1772 13.9233 27.0018C12.7354 26.1044 11.6964 25.1646 10.8014 24.3551C10.5192 24.0998 10.2514 23.8575 9.99767 23.6336C9.60039 23.283 8.99855 23.3031 8.62558 23.6795C8.06887 24.2413 7.48265 24.7665 6.87006 25.2523L6.86861 25.2534C5.58057 26.2787 4.14999 26.8653 3.02464 27.1946C2.88654 27.235 2.75357 27.2714 2.62664 27.3041C2.71157 27.0341 2.81089 26.7388 2.92538 26.4279C3.42365 25.0752 4.17266 23.532 5.19828 22.477C5.57562 22.0888 5.57556 21.4709 5.19815 21.0828C4.17262 20.0282 3.42364 18.4853 2.92537 17.1326C2.81089 16.8219 2.71158 16.5265 2.62665 16.2566C2.75358 16.2893 2.88654 16.3257 3.02464 16.3661C4.14999 16.6954 5.58057 17.282 6.86861 18.3073L6.86999 18.3084C7.48805 18.7986 8.07947 19.3285 8.64106 19.8956C9.01362 20.2717 9.6148 20.2923 10.0122 19.9425C10.2739 19.7122 10.5501 19.4627 10.8411 19.1999C11.7309 18.3961 12.759 17.4674 13.9341 16.5796C15.486 15.4069 17.2037 14.38 19.0038 13.9077Z" stroke="white" stroke-width="2" stroke-linejoin="round"/>
<path d="M32.5 21.7935C33.1904 21.7935 33.75 21.1837 33.75 20.4314C33.75 19.6791 33.1904 19.0692 32.5 19.0692C31.8096 19.0692 31.25 19.6791 31.25 20.4314C31.25 21.1837 31.8096 21.7935 32.5 21.7935Z" fill="white"/>
<path d="M29.5601 28.3327C28.1827 25.7465 27.4573 24.7846 27.4573 21.7944C27.4573 18.8042 28.1827 16.9705 29.5601 14.3843" stroke="white" stroke-width="1.5625" stroke-miterlimit="20" stroke-linecap="round"/>
</svg>
